HIERARCHY
ROOT Hips
{
	OFFSET 0.00000 0.00000 0.00000
	CHANNELS 6 Xposition Yposition Zposition Zrotation Yrotation Xrotation 
	JOINT LHipJoint
	{
		OFFSET 0 0 0
		CHANNELS 3 Zrotation Yrotation Xrotation
		JOINT LeftHip
		{
			OFFSET 1.58895 -1.83665 0.71753
			CHANNELS 3 Zrotation Yrotation Xrotation
			JOINT LeftKnee
			{
				OFFSET 2.50528 -6.88321 0.00000
				CHANNELS 3 Zrotation Yrotation Xrotation
				JOINT LeftAnkle
				{
					OFFSET 2.63244 -7.23257 0.00000
					CHANNELS 3 Zrotation Yrotation Xrotation
					JOINT LeftToe
					{
						OFFSET 0.23691 -0.65090 1.72750
						CHANNELS 3 Zrotation Yrotation Xrotation
						End Site
						{
							OFFSET 0.00000 -0.00000 0.92561
						}
					}
				}
			}
		}
	}
	JOINT RHipJoint
	{
		OFFSET 0 0 0
		CHANNELS 3 Zrotation Yrotation Xrotation
		JOINT RightHip
		{
			OFFSET -1.51435 -1.83665 0.71753
			CHANNELS 3 Zrotation Yrotation Xrotation
			JOINT RightKnee
			{
				OFFSET -2.54551 -6.99375 0.00000
				CHANNELS 3 Zrotation Yrotation Xrotation
				JOINT RightAnkle
				{
					OFFSET -2.66027 -7.30903 0.00000
					CHANNELS 3 Zrotation Yrotation Xrotation
					JOINT RightToe
					{
						OFFSET -0.22981 -0.63138 2.03959
						CHANNELS 3 Zrotation Yrotation Xrotation
						End Site
						{
							OFFSET -0.00000 -0.00000 1.07060
						}
					}
				}
			}
		}
	}
	JOINT lowerback
	{
		OFFSET 0 0 0
		CHANNELS 3 Zrotation Yrotation Xrotation
		JOINT Chest
		{
			OFFSET -0.02651 1.86275 -0.11152
			CHANNELS 3 Zrotation Yrotation Xrotation
			JOINT Chest2
			{
				OFFSET 0.01019 1.86224 0.04087
				CHANNELS 3 Zrotation Yrotation Xrotation
				JOINT lowerneck
				{
					OFFSET 0 0 0
					CHANNELS 3 Zrotation Yrotation Xrotation
					JOINT Neck
					{
						OFFSET -0.01926 1.80512 0.08867
						CHANNELS 3 Zrotation Yrotation Xrotation
						JOINT Head
						{
							OFFSET 0.05516 1.76451 -0.38475
							CHANNELS 3 Zrotation Yrotation Xrotation
							End Site
							{
								OFFSET 0.01592 1.82587 -0.14001
							}
						}
					}
				}
				JOINT LeftCollar
				{
					OFFSET 0 0 0
					CHANNELS 3 Zrotation Yrotation Xrotation
					JOINT LeftShoulder
					{
						OFFSET 3.47116 1.51376 0.14491
CHANNELS 3 Zrotation Xrotation Yrotation
						JOINT LeftElbow
						{
OFFSET 0 -4.780950 0.000000
CHANNELS 3 Zrotation Xrotation Yrotation
							JOINT LeftWrist
							{
OFFSET 0 -3.586150 -0.000000
CHANNELS 3 Zrotation Xrotation Yrotation
								JOINT lhand
								{
									OFFSET 0 0 0
CHANNELS 3 Zrotation Xrotation Yrotation
									JOINT LFingers
									{
OFFSET 0 -0.659810 0.000000
CHANNELS 3 Zrotation Xrotation Yrotation
										End Site
										{
OFFSET 0 -0.531960 0.000000
										}
									}
								}
								JOINT LThumb
								{
OFFSET 0 0.000000 0.000000
CHANNELS 3 Zrotation Xrotation Yrotation
									End Site
									{
OFFSET 0 -0.540080 0.540080
									}
								}
							}
						}
					}
				}
				JOINT RightCollar
				{
					OFFSET 0 0 0
					CHANNELS 3 Zrotation Yrotation Xrotation
					JOINT RightShoulder
					{
						OFFSET -3.31725 1.61216 0.35156
CHANNELS 3 Zrotation Xrotation Yrotation
						JOINT RightElbow
						{
OFFSET 0 -4.489130 0.000000
CHANNELS 3 Zrotation Xrotation Yrotation
							JOINT RightWrist
							{
OFFSET 0 -3.705100 0.000000
CHANNELS 3 Zrotation Xrotation Yrotation
								JOINT rhand
								{
									OFFSET 0 0 0
CHANNELS 3 Zrotation Xrotation Yrotation
									JOINT RFingers
									{
OFFSET 0 -0.449140 0.000000
CHANNELS 3 Zrotation Xrotation Yrotation
										End Site
										{
OFFSET 0 -0.362110 0.000000
										}
									}
								}
								JOINT RThumb
								{
OFFSET 0 0.000000 0.000000
CHANNELS 3 Zrotation Xrotation Yrotation
									End Site
									{
OFFSET 0 -0.367630 0.367630
									}
								}
							}
						}
					}
				}
			}
		}
	}
}
MOTION
Frames: 8
Frame Time: 0.008333333333333333
-1.612499 18.544344 3.806317 -4.471892 -32.001525 14.066572 0.000000 0.000000 0.000000 -9.547106 10.672469 -21.643757 2.709081 10.208558 29.654937 1.855362 7.836769 -29.548361 8.543202 -16.504655 -54.496525 0.000000 0.000000 0.000000 17.517259 24.175582 -18.109155 -1.467447 -7.655289 21.671748 -0.231156 4.810891 -8.682702 -0.123810 2.267993 -6.246842 -6.715304 -2.525435 24.511071 -3.889034 -5.341953 6.651162 1.116553 -2.597603 -6.014419 8.462398 8.527424 -10.689740 -5.963424 11.503997 27.629267 -2.087164 5.220288 11.632447 0.000000 0.000000 0.000000 11.878273 -37.928577 -55.933878 50.144001 -53.052433 26.289439 50.789628 -62.296567 55.519426 0.000000 0.000000 0.000000 -7.125000 0.000000 0.000000 -0.465118 -36.550365 -0.650719 0.000000 0.000000 0.000000 -12.642547 -28.616774 60.900947 -136.410488 -50.058481 -98.848248 -38.018312 9.052450 33.783297 0.000000 0.000000 0.000000 7.125000 0.000000 0.000000 -8.523643 70.149269 5.135236
-1.592666 18.548891 3.803399 -4.776655 -31.784390 14.237035 0.000000 0.000000 0.000000 -9.266362 10.651941 -21.791421 2.721993 10.230845 29.727438 1.836199 7.750584 -29.370696 8.581386 -16.530657 -54.630626 0.000000 0.000000 0.000000 17.814919 23.828799 -18.026479 -1.411551 -7.514348 21.248414 -0.222618 4.712651 -8.519655 -0.130000 2.323742 -6.401224 -6.780618 -2.814801 24.334738 -4.034528 -5.720063 6.684349 1.086937 -2.784351 -5.876221 9.052882 8.925825 -10.333964 -6.447534 12.077362 27.220887 -2.284988 5.493621 11.533897 0.000000 0.000000 0.000000 12.017951 -38.904150 -55.943378 52.252225 -53.862063 27.983725 51.988895 -63.464265 55.527797 0.000000 0.000000 0.000000 -7.125000 0.000000 0.000000 -0.069522 -37.101736 -0.097294 0.000000 0.000000 0.000000 -12.753174 -29.336195 60.201298 -136.608342 -49.955774 -98.999869 -38.425556 10.514530 33.411299 0.000000 0.000000 0.000000 7.125000 0.000000 0.000000 -9.331129 69.874043 5.567067
-1.566259 18.552934 3.797715 -5.119630 -31.608662 14.460813 0.000000 0.000000 0.000000 -8.970141 10.603463 -22.000336 2.743040 10.266912 29.845604 1.830551 7.576997 -29.226242 8.551720 -16.510424 -54.526386 0.000000 0.000000 0.000000 18.115040 23.452519 -18.033166 -1.357170 -7.373981 20.828244 -0.206128 4.657722 -8.217318 -0.128646 2.311599 -6.367738 -6.711342 -3.135959 24.186503 -4.288396 -6.117395 6.750046 0.869614 -2.981882 -5.743683 9.539695 9.334518 -10.224694 -6.632025 12.600915 27.091837 -2.352656 5.755717 11.565438 0.000000 0.000000 0.000000 12.360598 -39.949653 -55.782276 54.219235 -54.559167 29.579468 52.757205 -64.018053 55.762093 0.000000 0.000000 0.000000 -7.125000 0.000000 0.000000 0.037563 -37.634717 0.052634 0.000000 0.000000 0.000000 -12.688580 -30.075636 59.565356 -136.653335 -49.932283 -99.034326 -38.739122 11.786299 33.051537 0.000000 0.000000 0.000000 7.125000 0.000000 0.000000 -9.961158 69.580280 5.879810
-1.537430 18.556231 3.789626 -5.421031 -31.550214 14.713466 0.000000 0.000000 0.000000 -8.755930 10.601097 -22.284668 2.769978 10.312946 29.996263 1.837306 7.373593 -29.145935 8.499256 -16.474382 -54.341506 0.000000 0.000000 0.000000 18.318416 23.160803 -18.111518 -1.306129 -7.239577 20.427161 -0.185579 4.615804 -7.829614 -0.116535 2.200620 -6.060376 -6.734087 -3.397312 23.977530 -4.569307 -6.452817 6.873416 0.649222 -3.154766 -5.516393 10.140594 9.706738 -10.055878 -6.994835 13.090414 26.673118 -2.508946 6.002495 11.496894 0.000000 0.000000 0.000000 12.767220 -41.133305 -55.484691 55.849125 -55.096723 30.911625 53.405595 -64.357990 55.975899 0.000000 0.000000 0.000000 -7.125000 0.000000 0.000000 0.112462 -38.096941 0.157937 0.000000 0.000000 0.000000 -12.518306 -30.860445 59.016021 -136.495927 -50.014073 -98.913748 -38.787926 12.582606 32.459128 0.000000 0.000000 0.000000 7.125000 0.000000 0.000000 -10.196625 68.944569 5.874606
-1.508606 18.559171 3.779134 -5.714717 -31.583289 15.025312 0.000000 0.000000 0.000000 -8.576958 10.627579 -22.647697 2.803288 10.369521 30.181882 1.855591 7.160557 -29.136663 8.431927 -16.427830 -54.103797 0.000000 0.000000 0.000000 18.477612 22.917710 -18.277830 -1.260832 -7.117770 20.064742 -0.164601 4.595978 -7.422270 -0.119860 2.230054 -6.141950 -6.962617 -3.547559 23.731523 -4.729959 -6.678373 6.998035 0.637531 -3.276631 -5.236910 10.550838 10.011793 -9.879164 -7.289053 13.502071 26.171281 -2.621551 6.206663 11.370001 0.000000 0.000000 0.000000 12.999589 -42.318764 -55.073017 57.020528 -55.461289 31.874263 54.188532 -64.933669 56.179918 0.000000 0.000000 0.000000 -7.125000 0.000000 0.000000 0.231896 -38.614476 0.325894 0.000000 0.000000 0.000000 -12.502591 -31.628393 58.543315 -136.188856 -50.172359 -98.678146 -38.845785 13.100138 31.821296 0.000000 0.000000 0.000000 7.125000 0.000000 0.000000 -10.437771 68.258551 5.852260
-1.476223 18.561898 3.766232 -6.043777 -31.619717 15.382094 0.000000 0.000000 0.000000 -8.368570 10.641473 -23.075145 2.846252 10.441784 30.419574 1.877203 6.940575 -29.147338 8.339747 -16.363486 -53.777348 0.000000 0.000000 0.000000 18.666590 22.636939 -18.540235 -1.225273 -7.020370 19.775703 -0.145373 4.616284 -7.040785 -0.141178 2.420279 -6.668747 -7.176601 -3.670868 23.644384 -4.817963 -6.878628 7.053895 0.702430 -3.378994 -5.106497 10.763640 10.271380 -9.670916 -7.516059 13.869884 25.620128 -2.686648 6.383211 11.196653 0.000000 0.000000 0.000000 13.118907 -43.296867 -54.459790 57.848076 -55.708118 32.556863 54.720195 -65.366072 56.464541 0.000000 0.000000 0.000000 -7.125000 0.000000 0.000000 0.212711 -39.072995 0.299175 0.000000 0.000000 0.000000 -12.537138 -32.264746 58.307017 -135.783640 -50.378336 -98.366372 -39.235973 13.753359 31.424082 0.000000 0.000000 0.000000 7.125000 0.000000 0.000000 -11.142868 67.939852 6.171420
-1.438623 18.562579 3.751076 -6.414177 -31.640489 15.764376 0.000000 0.000000 0.000000 -8.129695 10.699986 -23.585983 2.900715 10.532349 30.718664 1.891324 6.727058 -29.114599 8.261999 -16.308553 -53.500948 0.000000 0.000000 0.000000 18.889328 22.358633 -18.869316 -1.199102 -6.947729 19.560571 -0.126661 4.633331 -6.651353 -0.160492 2.580477 -7.112909 -7.283449 -3.745744 23.593834 -4.859459 -6.989852 7.140179 0.736291 -3.439860 -4.972135 10.795333 10.485204 -9.614080 -7.651395 14.178081 25.143602 -2.693186 6.521483 11.051644 0.000000 0.000000 0.000000 13.145544 -44.201743 -53.765171 58.345664 -55.852655 32.968241 54.961118 -65.444783 56.655189 0.000000 0.000000 0.000000 -7.125000 0.000000 0.000000 0.160696 -39.324663 0.226163 0.000000 0.000000 0.000000 -12.602131 -32.785588 58.149087 -135.299752 -50.620282 -97.993026 -39.442014 14.107385 31.127624 0.000000 0.000000 0.000000 7.125000 0.000000 0.000000 -11.522780 67.673972 6.315073
-1.398168 18.560898 3.735788 -6.754076 -31.629223 16.128665 0.000000 0.000000 0.000000 -7.923927 10.751367 -24.146248 2.965955 10.639439 31.073646 1.898253 6.561250 -29.063860 8.230547 -16.286198 -53.388789 0.000000 0.000000 0.000000 19.074452 22.119486 -19.222682 -1.180538 -6.895767 19.406904 -0.110640 4.630189 -6.299671 -0.182621 2.750958 -7.586239 -7.360234 -3.748094 23.646264 -4.830488 -7.008452 7.190428 0.815235 -3.451502 -4.928545 10.857882 10.579470 -9.361004 -7.937268 14.351951 24.481192 -2.788485 6.599256 10.805961 0.000000 0.000000 0.000000 13.019169 -44.937947 -53.040482 58.313424 -55.843321 32.941622 54.922373 -65.121609 56.776882 0.000000 0.000000 0.000000 -7.125000 0.000000 0.000000 0.066505 -39.394199 0.093617 0.000000 0.000000 0.000000 -12.731791 -33.080209 58.053755 -134.730847 -50.898794 -97.552360 -39.394117 13.942991 30.869744 0.000000 0.000000 0.000000 7.125000 0.000000 0.000000 -11.487622 67.371515 6.216586
